# File created by Blade
# Date/Time:  Thu Jan 22 19:13:14 2015
# Frame Rate: 120.000 fps
#------------------------------------------------------
:FULLY-SPECIFIED
:DEGREES
2384
root 1.013765 24.933226 -7.632925 91.377182 -55.827136 -36.343382
RightUpLeg -109.595085 13.658143 17.700848
RightLeg 59.419998 -0.000000 -0.000000
RightFoot -11.964475 8.266396 0.810699
RightToeBase 2.735654 -0.000000 -0.000000
LeftUpLeg -11.784307 50.240452 28.567044
LeftLeg 4.448621 -0.000000 -0.000000
LeftFoot -29.543361 0.374262 -46.194697
LeftToeBase 9.429098 -0.000000 -0.000000
Spine 29.444826 -36.225665 -20.876034
RightShoulder -25.662145 -14.599630 -27.904769
RightArm -8.955823 50.927905 30.638272
RightForeArm 19.376710 -0.000000 17.312446
RightHand 19.809395 -0.000000 -17.130715
RightHandThumb1 -24.326973 -0.000000 -32.862282
LeftShoulder -1.324171 -9.694954 29.711424
LeftArm 28.342405 -14.582344 -61.068205
LeftForeArm 23.625526 -0.000000 6.870685
LeftHand -4.917503 -0.000000 15.640820
LeftHandThumb1 -26.253704 0.000000 33.147579
Head 3.717246 -48.834377 8.239140
2385
root 1.017515 24.930235 -7.622198 91.378824 -55.823322 -36.350199
RightUpLeg -109.586694 13.656093 17.707650
RightLeg 59.433231 -0.000000 -0.000000
RightFoot -12.012103 8.218678 0.664614
RightToeBase 2.748596 -0.000000 -0.000000
LeftUpLeg -11.752604 50.264364 28.573066
LeftLeg 4.423781 -0.000000 -0.000000
LeftFoot -29.504895 0.288793 -46.241784
LeftToeBase 9.317534 -0.000000 -0.000000
Spine 29.426781 -36.210506 -20.850699
RightShoulder -25.654316 -14.640053 -27.885518
RightArm -8.900447 51.023494 30.734897
RightForeArm 19.376589 0.000000 17.298529
RightHand 19.740578 0.000000 -17.214577
RightHandThumb1 -24.326973 -0.000000 -32.862282
LeftShoulder -1.264069 -9.696808 29.709397
LeftArm 28.338619 -14.595740 -61.070730
LeftForeArm 23.588945 -0.000000 6.852923
LeftHand -4.909930 -0.000000 15.516009
LeftHandThumb1 -26.253704 0.000000 33.147579
Head 3.738106 -48.843338 8.195741
2386
root 1.020994 24.927008 -7.611182 91.344916 -55.814222 -36.337315
RightUpLeg -109.579415 13.625806 17.704090
RightLeg 59.458813 -0.000000 -0.000000
RightFoot -12.023857 8.197756 0.586185
RightToeBase 2.610323 -0.000000 -0.000000
LeftUpLeg -11.714937 50.242945 28.592989
LeftLeg 4.413785 -0.000000 -0.000000
LeftFoot -29.525184 0.229815 -46.284944
LeftToeBase 9.287290 -0.000000 -0.000000
Spine 29.452030 -36.198451 -20.845069
RightShoulder -25.651843 -14.657225 -27.863601
RightArm -8.856959 51.072938 30.808963
RightForeArm 19.388094 -0.000000 17.257272
RightHand 19.986610 -0.000000 -17.357818
RightHandThumb1 -24.326973 -0.000000 -32.862282
LeftShoulder -1.238523 -9.715681 29.712198
LeftArm 28.371936 -14.577619 -61.071976
LeftForeArm 23.556866 -0.000000 6.796652
LeftHand -4.911736 0.000000 15.417048
LeftHandThumb1 -26.253704 0.000000 33.147579
Head 3.716591 -48.824660 8.200647
2387
root 1.023101 24.921826 -7.601117 91.324724 -55.815657 -36.351791
RightUpLeg -109.579674 13.609960 17.669558
RightLeg 59.498585 -0.000000 -0.000000
RightFoot -12.010376 8.149843 0.556298
RightToeBase 2.547470 -0.000000 -0.000000
LeftUpLeg -11.635931 50.255346 28.633158
LeftLeg 4.400701 -0.000000 -0.000000
LeftFoot -29.496966 0.106077 -46.407308
LeftToeBase 9.289715 -0.000000 -0.000000
Spine 29.471952 -36.168771 -20.854177
RightShoulder -25.640632 -14.654350 -27.863058
RightArm -8.845462 51.069785 30.870995
RightForeArm 19.460138 -0.000000 17.224070
RightHand 20.062882 -0.000000 -17.361052
RightHandThumb1 -24.326973 -0.000000 -32.862282
LeftShoulder -1.223375 -9.743661 29.705177
LeftArm 28.405714 -14.521758 -61.047579
LeftForeArm 23.445852 -0.000000 6.736935
LeftHand -4.876860 -0.000000 15.312036
LeftHandThumb1 -26.253704 0.000000 33.147579
Head 3.712821 -48.801336 8.186976
2388
root 1.023954 24.915784 -7.592934 91.321735 -55.816590 -36.379876
RightUpLeg -109.585975 13.616338 17.598403
RightLeg 59.531746 -0.000000 -0.000000
RightFoot -12.025622 8.082116 0.492237
RightToeBase 2.454608 -0.000000 -0.000000
LeftUpLeg -11.558736 50.272602 28.676621
LeftLeg 4.387999 -0.000000 -0.000000
LeftFoot -29.478147 0.023731 -46.504195
LeftToeBase 9.241543 -0.000000 -0.000000
Spine 29.479499 -36.121356 -20.864367
RightShoulder -25.679812 -14.667393 -27.813883
RightArm -8.740932 51.088718 30.958466
RightForeArm 19.470313 -0.000000 17.154732
RightHand 19.999403 -0.000000 -17.417945
RightHandThumb1 -24.326973 -0.000000 -32.862282
LeftShoulder -1.210408 -9.804576 29.716383
LeftArm 28.413855 -14.514745 -61.082563
LeftForeArm 23.449409 -0.000000 6.706823
LeftHand -4.884379 -0.000000 15.196623
LeftHandThumb1 -26.253704 0.000000 33.147579
Head 3.708504 -48.805238 8.203888
